# xmcd CD database file
#
# Track frame offsets:
#	150
#	16947
#	31007
#	48842
#	62470
#	74620
#	92582
#	104687
#	126467
#	143065
#
# Disc length: 2100 seconds
#
# Revision: 2
# Processed by: cddbd v1.5.1PL0 Copyright (c) Steve Scherf et al.
# Submitted via: CDex 1.51
#
DISCID=8408320a
DTITLE=Chet Baker - Sings and Plays
DYEAR=1955
DGENRE=Jazz
TTITLE0=Let's get lost
TTITLE1=This is always
TTITLE2=Long ago and far away
TTITLE3=Someone to watch over me
TTITLE4=Just friends
TTITLE5=I wish I knew
TTITLE6=Daybreak
TTITLE7=You don't know what love is
TTITLE8=Grey december
TTITLE9=I remember you
EXTD=YEAR: 1955
EXTT0=
EXTT1=
EXTT2=
EXTT3=
EXTT4=
EXTT5=
EXTT6=
EXTT7=
EXTT8=
EXTT9=
PLAYORDER=
